<?xml version="1.0" encoding="utf-8"?>
<!-- Generator: Adobe Illustrator 28.4.1, SVG Export Plug-In . SVG Version: 6.00 Build 0)  -->
<svg version="1.1" id="Layer_1" xmlns="http://www.w3.org/2000/svg" xmlns:xlink="http://www.w3.org/1999/xlink" x="0px" y="0px"
	 viewBox="0 0 250 150" style="enable-background:new 0 0 250 150;" xml:space="preserve">
<style type="text/css">
	.st0{fill:#221F42;}
	.st1{fill:#EDB44B;}
	.st2{fill:#74AE3E;}
</style>
<g>
	<path class="st0" d="M201.8,60.6c0,3-1.4,4.5-4.3,4.5c0,0,0,0,0,0c0,0,0,0,0,0c-1.9,0-3.6-0.1-4.9-0.3c1.9-1.8,2.8-3.8,2.8-6.2
		c0-1.5-0.4-2.9-1.1-4.1c-0.7-1.2-1.8-2.2-3.1-3c-1.3-0.8-2.8-1.1-4.5-1.1s-3.1,0.4-4.5,1.1c-1.3,0.7-2.4,1.7-3.1,3
		c-0.8,1.3-1.1,2.7-1.1,4.2c0,1.2,0.2,2.4,0.7,3.4c0.5,1,1.2,2,2.1,2.8c-1.3,0.1-3,0.2-5,0.2c0,0,0,0,0,0h-29.9
		c-1.8,0-3.5-0.6-5.1-1.7c0.1-0.5,0.1-1,0.1-1.5v-7.6l-4.2,0.6v5.7c0,1.6-0.4,2.8-1.3,3.5c-0.9,0.7-2.3,1.1-4.1,1.1c0,0,0,0,0,0
		s0,0,0,0c-1.1,0-2.1-0.3-2.8-0.8c-0.8-0.5-1.2-1.4-1.4-2.6V50.3l-4.2,0.6l0,17.6c0,2-0.6,3.5-1.7,4.5s-2.7,1.4-4.8,1.4l0.3,3.5
		c3.4,0,6-0.7,7.7-2.2c1.7-1.5,2.5-3.8,2.5-7.1v-0.8c1,1.2,2.4,1.8,4.2,1.8c0,0,0,0,0,0c0,0,0,0,0,0c4,0,6.7-0.9,8.2-2.8
		c0.9,0.9,2,1.6,3.1,2.1c1.1,0.5,2.2,0.7,3.3,0.7h29.9l0,0c4.4,0,8.1-0.5,11.1-1.6c3.4,1,6.9,1.6,10.6,1.6c0,0,0,0,0,0
		c2.8,0,4.9-0.7,6.4-2c1.4-1.3,2.1-3.2,2.1-5.7V50.3l-4.2,0.6L201.8,60.6L201.8,60.6z M190,62.3c-0.9,1-2,1.7-3.4,2.2
		c-1.4-0.4-2.5-1.2-3.3-2.1c-0.8-1-1.3-2-1.3-3.2c0-1.4,0.4-2.5,1.3-3.3s1.9-1.3,3.3-1.3s2.5,0.4,3.4,1.3c0.9,0.9,1.4,2,1.4,3.3
		C191.3,60.3,190.9,61.3,190,62.3"/>
	<path class="st0" d="M201.9,46c1.1,1,2.8,1,3.8,0l0,0c1.1-1.1,1.1-2.8,0-3.9l-0.1,0c-1.1-1-2.7-1-3.8,0
		C200.7,43.1,200.7,44.9,201.9,46L201.9,46z"/>
	<path class="st0" d="M184.6,46c1.1,1,2.8,1,3.8,0l0,0c1.1-1.1,1.1-2.8,0-3.9l-0.1,0c-1.1-1-2.7-1-3.8,0
		C183.4,43.1,183.4,44.9,184.6,46L184.6,46z"/>
	<path class="st0" d="M136.1,73.5c-1.1-1-2.7-1-3.8,0c-1.1,1.1-1.1,2.8,0,3.9l0,0c1.1,1,2.8,1,3.8,0
		C137.3,76.3,137.3,74.6,136.1,73.5L136.1,73.5z"/>
	<path class="st0" d="M143.4,73.5c-1.1-1-2.7-1-3.8,0c-1.1,1.1-1.1,2.8,0,3.9l0,0c1.1,1,2.8,1,3.8,0
		C144.5,76.3,144.5,74.6,143.4,73.5L143.4,73.5z"/>
	<path class="st0" d="M189.5,81.1c-1.1-1-2.7-1-3.8,0c-1.1,1.1-1.1,2.8,0,3.9l0,0c1.1,1,2.8,1,3.8,0
		C190.6,83.9,190.6,82.2,189.5,81.1L189.5,81.1z"/>
	<polygon class="st0" points="136.2,101.4 121.8,82.3 117.3,82.3 117.3,108.5 121.5,108.5 121.5,89.2 135.9,108.5 140.4,108.5 
		140.4,82 136.2,82.5 	"/>
	<path class="st0" d="M164,105.1c-0.2-0.3-0.3-0.8-0.3-1.4v-7.7c0-2.2-0.7-4-2.2-5.2s-3.6-1.9-6.5-1.9c-1.6,0-3.1,0.2-4.6,0.5
		s-2.7,0.7-3.7,1.2l0.8,3.3c2.3-1.1,4.6-1.6,6.9-1.6c1.7,0,2.9,0.3,3.7,1s1.2,1.5,1.2,2.5V97c-1.4-0.2-2.8-0.3-4.3-0.3
		c-2.8,0-5,0.6-6.7,1.7c-1.7,1.1-2.5,2.7-2.5,4.9c0,1.6,0.6,3,1.8,4c1.2,1.1,2.8,1.6,4.8,1.6c3,0,5.3-1.1,7.1-3.2
		c0.2,1,0.7,1.8,1.4,2.3c0.7,0.5,1.7,0.8,3.1,0.8c0.4,0,0.8,0,1.4-0.1c0.6-0.1,1-0.2,1.4-0.3v-3.2c-0.3,0.2-0.8,0.2-1.3,0.2
		C164.7,105.5,164.2,105.4,164,105.1 M159.3,103.1c-0.8,0.8-1.6,1.5-2.4,1.8c-0.8,0.4-1.8,0.6-2.9,0.6s-2-0.2-2.6-0.7
		c-0.7-0.5-1-1.2-1-2.1s0.4-1.6,1.2-2.1c0.8-0.5,2.1-0.7,3.8-0.7c1.5,0,2.9,0.1,4,0.3L159.3,103.1L159.3,103.1z"/>
	<path class="st0" d="M178.3,80.3c-2.3,0-4.1,0.6-5.3,1.7s-1.8,2.8-1.8,4.8v2.3h-3.1v3.4h3.1v15.9h4.4V92.6h6.4v-3.4h-6.4V87
		c0-2.2,1.1-3.3,3.4-3.3c1.2,0,2.3,0.2,3.3,0.6l0.8-3.2c-0.6-0.2-1.3-0.4-2.2-0.6S179.2,80.3,178.3,80.3"/>
	<rect x="185.4" y="89.2" class="st0" width="4.4" height="19.3"/>
	<path class="st0" d="M207.1,88.8c-1.5,0-2.9,0.4-4.1,1.3c-1.3,0.9-2.2,2-2.9,3.5l-0.4-4.4h-4.1v19.3h4.4V96.3
		c0.7-0.9,1.7-1.6,3.1-2.2s2.8-0.8,4.4-0.8L207.1,88.8L207.1,88.8z"/>
	<path class="st1" d="M96,64L84.6,75.4c-3.2,3.2-8.4,3.2-11.6,0c-3.2-3.2-3.2-8.4,0-11.6l11.5-11.5c3.2-3.2,8.4-3.2,11.6,0
		C99.2,55.6,99.2,60.8,96,64"/>
	<path class="st2" d="M63.2,94.1L58.2,99c-2.4,2.4-6.4,2.4-8.8,0c-2.4-2.4-2.4-6.4,0-8.8l4.9-4.9c2.4-2.4,6.4-2.4,8.8,0
		S65.6,91.6,63.2,94.1"/>
	<path class="st1" d="M45.7,69.6l6.8,6.8c3.2,3.2,8.4,3.2,11.6,0l0,0c3.2-3.2,3.2-8.4,0-11.6L57.2,58c-3.2-3.2-8.4-3.2-11.6,0
		C42.5,61.2,42.5,66.4,45.7,69.6"/>
	<path class="st2" d="M71.1,95.1l10.8,10.8c3.2,3.2,8.4,3.2,11.6,0c3.2-3.2,3.2-8.4,0-11.6L82.7,83.5c-3.2-3.2-8.4-3.2-11.6,0
		C67.9,86.7,67.9,91.9,71.1,95.1"/>
	<path class="st1" d="M77.1,49.8c0,4.9-4,8.9-8.9,8.9s-8.9-4-8.9-8.9s4-8.9,8.9-8.9S77.1,44.9,77.1,49.8"/>
</g>
</svg>
